<?xml version="1.0" ?>
<svg id="Layer_1" style="enable-background:new 0 0 512 512;" version="1.1" viewBox="0 0 512 512" xml:space="preserve" xmlns="http://www.w3.org/2000/svg" ><style type="text/css">
	.st0{fill:#E64B3F;}
	.st1{fill:#973732;}
	.st2{fill:#FFFFFF;}
	.st3{fill:#E46675;}
	.st4{fill:#A1334B;}
	.st5{fill:#03ADAD;}
	.st6{fill:#04847D;}
	.st7{fill:#A35BB4;}
	.st8{fill:#76418F;}
	.st9{fill:#98B260;}
	.st10{fill:#738748;}
	.st11{fill:#DC6E79;}
	.st12{fill:#DAAC01;}
	.st13{fill:#CD811C;}
	.st14{fill:#2EC19C;}
	.st15{fill:#348969;}
	.st16{fill:#F36C00;}
	.st17{fill:#C05600;}
</style><g><path class="st0" d="M458.7,0H53.3C23.9,0,0,23.9,0,53.3v405.3C0,488.1,23.9,512,53.3,512h405.3c29.5,0,53.3-23.9,53.3-53.3V53.3   C512,23.9,488.1,0,458.7,0z"/><path class="st1" d="M402.7,109.3H109.3v48.9l12.2,12.2h-12.2v232.3L218.7,512h240c29.5,0,53.3-23.9,53.3-53.3v-240L402.7,109.3z"/><g><g><path class="st2" d="M109.3,109.3v48.9h293.3v-48.9H109.3z M286.6,139.9H139.9v-12.2h146.7V139.9z M329.3,139.9h-12.2v-12.2h12.2     V139.9z M353.8,139.9h-12.2v-12.2h12.2V139.9z M378.2,139.9H366v-12.2h12.2V139.9z"/></g><g><path class="st2" d="M109.3,402.7h293.3V170.4H109.3V402.7z M182.7,237.6h131.9l-24.1-24.1l8.6-8.6l38.9,38.9l-38.9,38.9     l-8.6-8.6l24.1-24.1H182.7V237.6z M212.9,288.3l8.6,8.6l-24.1,24.1h131.9v12.2H197.4l24.1,24.1l-8.6,8.6L174,327.2L212.9,288.3z"/></g></g></g></svg>