<?xml version="1.0" encoding="UTF-8"?>
<svg width="294px" height="294px" viewBox="0 0 294 294" version="1.1" xmlns="http://www.w3.org/2000/svg"
>
    <!-- Generator: Sketch 42 (36781) - http://www.bohemiancoding.com/sketch -->
    <title>Group</title>
    <desc>Created with Sketch.</desc>
    <defs></defs>
    <g id="Page-1" stroke="none" stroke-width="1" fill="none" fill-rule="evenodd">
        <g id="1495240439_Cog_web_preferences_send_receive_web_setting_webpage_website" fill-rule="nonzero"
           fill="#000000">
            <g id="Layer_1">
                <g id="Group">
                    <g id="Shape">
                        <path d="M0.3,0.3 L0.3,49.2 L293.6,49.2 L293.6,0.3 L0.3,0.3 L0.3,0.3 Z M177.6,30.9 L30.9,30.9 L30.9,18.7 L177.6,18.7 L177.6,30.9 Z M220.3,30.9 L208.1,30.9 L208.1,18.7 L220.3,18.7 L220.3,30.9 Z M244.8,30.9 L232.6,30.9 L232.6,18.7 L244.8,18.7 L244.8,30.9 Z M269.2,30.9 L257,30.9 L257,18.7 L269.2,18.7 L269.2,30.9 Z"></path>
                        <path d="M0.3,293.7 L293.6,293.7 L293.6,61.4 L0.3,61.4 L0.3,293.7 Z M73.7,128.6 L205.6,128.6 L181.5,104.5 L190.1,95.9 L229,134.8 L190.1,173.7 L181.5,165.1 L205.6,141 L73.7,141 L73.7,128.6 Z M103.9,179.3 L112.5,187.9 L88.4,212 L220.3,212 L220.3,224.2 L88.4,224.2 L112.5,248.3 L103.9,256.9 L65,218.2 L103.9,179.3 Z"></path>
                    </g>
                </g>
            </g>
        </g>
    </g>
</svg>